<svg id="Capa_1" enable-background="new 0 0 512 512" height="512" viewBox="0 0 512 512" width="512" xmlns="http://www.w3.org/2000/svg"><path d="m475.737 403.681h-439.474c-20.028 0-36.263-16.236-36.263-36.263v-222.836c0-20.027 16.235-36.263 36.263-36.263h439.475c20.027 0 36.263 16.235 36.263 36.263v222.836c-.001 20.027-16.236 36.263-36.264 36.263z" fill="#ff2b4e"/><path d="m475.737 108.319h-18.649c20.027 0 36.262 16.235 36.262 36.263v222.836c0 20.027-16.235 36.262-36.262 36.262h18.649c20.027 0 36.263-16.235 36.263-36.262v-222.836c0-20.028-16.235-36.263-36.263-36.263z" fill="#ff002d"/><path d="m463.3 366.327h-414.6c-8.583 0-15.541-6.958-15.541-15.541v-189.572c0-8.583 6.958-15.541 15.541-15.541h414.6c8.583 0 15.541 6.958 15.541 15.541v189.571c0 8.584-6.958 15.542-15.541 15.542z" fill="#eaeff9"/><path d="m463.3 145.673h-18.649c8.583 0 15.541 6.958 15.541 15.541v189.571c0 8.583-6.958 15.541-15.541 15.541h18.649c8.583 0 15.541-6.958 15.541-15.541v-189.571c0-8.582-6.958-15.541-15.541-15.541z" fill="#dbe0ea"/><g fill="#a95118"><path d="m211.408 216.041c0-4.291-3.479-7.771-7.77-7.771-4.292 0-7.771 3.479-7.771 7.771v13.32c0 4.292 3.479 7.771 7.771 7.771s7.77-3.479 7.77-7.771z"/><path d="m203.638 271.084c-4.292 0-7.771 3.479-7.771 7.771v13.32c0 4.292 3.479 7.771 7.771 7.771s7.77-3.479 7.77-7.771v-13.32c0-4.292-3.479-7.771-7.77-7.771z"/><path d="m345.654 203.243v38.916c0 4.292 3.479 7.771 7.771 7.771s7.771-3.479 7.771-7.771v-38.916c0-4.291-3.479-7.77-7.771-7.77s-7.771 3.479-7.771 7.77z"/><path d="m426.674 304.972v-38.916c0-4.292-3.479-7.77-7.77-7.77-4.292 0-7.771 3.479-7.771 7.77v38.916c0 4.292 3.479 7.771 7.771 7.771 4.291 0 7.77-3.479 7.77-7.771z"/><path d="m400.054 190.147h-27.78c-4.291 0-7.77 3.479-7.77 7.771s3.479 7.771 7.77 7.771h27.78c4.292 0 7.771-3.479 7.771-7.771-.001-4.292-3.48-7.771-7.771-7.771z"/><path d="m400.054 248.225h-27.78c-4.291 0-7.77 3.479-7.77 7.771s3.479 7.771 7.77 7.771h27.78c4.292 0 7.771-3.479 7.771-7.771s-3.48-7.771-7.771-7.771z"/><path d="m400.054 306.312h-27.78c-4.291 0-7.77 3.479-7.77 7.771s3.479 7.771 7.77 7.771h27.78c4.292 0 7.771-3.479 7.771-7.771-.001-4.292-3.48-7.771-7.771-7.771z"/><path d="m93.097 258.286c-4.291 0-7.771 3.479-7.771 7.77v38.916c0 4.292 3.479 7.771 7.771 7.771s7.771-3.479 7.771-7.771v-38.916c-.001-4.291-3.48-7.77-7.771-7.77z"/><path d="m158.575 258.286c-4.292 0-7.771 3.479-7.771 7.77v38.916c0 4.292 3.479 7.771 7.771 7.771 4.291 0 7.77-3.479 7.77-7.771v-38.916c.001-4.291-3.478-7.77-7.77-7.77z"/><path d="m100.867 203.243c0-4.291-3.479-7.77-7.771-7.77-4.291 0-7.771 3.479-7.771 7.77v38.916c0 4.292 3.479 7.771 7.771 7.771s7.771-3.479 7.771-7.771z"/><path d="m166.346 203.243c0-4.291-3.479-7.77-7.77-7.77-4.292 0-7.771 3.479-7.771 7.77v38.916c0 4.292 3.479 7.771 7.771 7.771 4.291 0 7.77-3.479 7.77-7.771z"/><path d="m139.726 190.147h-27.78c-4.292 0-7.771 3.479-7.771 7.771s3.479 7.771 7.771 7.771h27.78c4.291 0 7.77-3.479 7.77-7.771.001-4.292-3.478-7.771-7.77-7.771z"/><path d="m139.726 248.225h-27.78c-4.292 0-7.771 3.479-7.771 7.771s3.479 7.771 7.771 7.771h27.78c4.291 0 7.77-3.479 7.77-7.771s-3.478-7.771-7.77-7.771z"/><path d="m139.726 306.312h-27.78c-4.292 0-7.771 3.479-7.771 7.771s3.479 7.771 7.771 7.771h27.78c4.291 0 7.77-3.479 7.77-7.771.001-4.292-3.478-7.771-7.77-7.771z"/><path d="m248.7 258.286c-4.292 0-7.771 3.479-7.771 7.77v38.916c0 4.292 3.479 7.771 7.771 7.771 4.291 0 7.77-3.479 7.77-7.771v-38.916c0-4.291-3.479-7.77-7.77-7.77z"/><path d="m314.179 258.286c-4.292 0-7.771 3.479-7.771 7.77v38.916c0 4.292 3.479 7.771 7.771 7.771s7.771-3.479 7.771-7.771v-38.916c-.001-4.291-3.48-7.77-7.771-7.77z"/><path d="m321.949 203.243c0-4.291-3.479-7.77-7.771-7.77s-7.771 3.479-7.771 7.77v38.916c0 4.292 3.479 7.771 7.771 7.771s7.771-3.479 7.771-7.771z"/><path d="m256.47 203.243c0-4.291-3.479-7.77-7.77-7.77-4.292 0-7.771 3.479-7.771 7.77v38.916c0 4.292 3.479 7.771 7.771 7.771 4.291 0 7.77-3.479 7.77-7.771z"/><path d="m295.33 190.147h-27.78c-4.291 0-7.771 3.479-7.771 7.771s3.479 7.771 7.771 7.771h27.78c4.292 0 7.771-3.479 7.771-7.771-.001-4.292-3.48-7.771-7.771-7.771z"/><path d="m295.33 306.312h-27.78c-4.291 0-7.771 3.479-7.771 7.771s3.479 7.771 7.771 7.771h27.78c4.292 0 7.771-3.479 7.771-7.771-.001-4.292-3.48-7.771-7.771-7.771z"/></g></svg>